<svg preserveAspectRatio="none" width="100%" height="100%" overflow="visible" style="display: block;" viewBox="0 0 19.5 19.5" fill="none" xmlns="http://www.w3.org/2000/svg">
<path id="Vector" d="M9.75 0.75C8.55653 1.94347 7.88604 3.56217 7.88604 5.25C7.88604 6.93783 8.55653 8.55653 9.75 9.75C10.9435 10.9435 12.5622 11.614 14.25 11.614C15.9378 11.614 17.5565 10.9435 18.75 9.75C18.75 11.53 18.2222 13.2701 17.2332 14.7501C16.2443 16.2302 14.8387 17.3837 13.1942 18.0649C11.5496 18.7461 9.74002 18.9243 7.99419 18.5771C6.24836 18.2298 4.64472 17.3726 3.38604 16.114C2.12737 14.8553 1.2702 13.2516 0.922937 11.5058C0.57567 9.75998 0.7539 7.95038 1.43509 6.30585C2.11628 4.66131 3.26983 3.25571 4.74987 2.26677C6.22991 1.27784 7.96997 0.75 9.75 0.75Z" stroke="var(--stroke-0, #404040)" stroke-width="1.5" stroke-linecap="round" stroke-linejoin="round"/>
</svg>
