<svg preserveAspectRatio="none" width="100%" height="100%" overflow="visible" style="display: block;" viewBox="0 0 14.3333 14.3333" fill="none" xmlns="http://www.w3.org/2000/svg">
<path id="Vector" d="M13.8333 13.8333V0.5M1.83333 1.83333H9.83333C10.5697 1.83333 11.1667 2.43029 11.1667 3.16667V4.5C11.1667 5.23638 10.5697 5.83333 9.83333 5.83333H1.83333C1.09695 5.83333 0.5 5.23638 0.5 4.5V3.16667C0.5 2.43029 1.09695 1.83333 1.83333 1.83333ZM6.5 8.5H9.83333C10.5697 8.5 11.1667 9.09695 11.1667 9.83333V11.1667C11.1667 11.903 10.5697 12.5 9.83333 12.5H6.5C5.76362 12.5 5.16667 11.903 5.16667 11.1667V9.83333C5.16667 9.09695 5.76362 8.5 6.5 8.5Z" stroke="var(--stroke-0, #404040)" stroke-linecap="round" stroke-linejoin="round"/>
</svg>
