<svg preserveAspectRatio="none" width="100%" height="100%" overflow="visible" style="display: block;" viewBox="0 0 14.3333 14.3333" fill="none" xmlns="http://www.w3.org/2000/svg">
<path id="Vector" d="M0.5 0.5V13.8333M4.5 8.5H7.83333C8.56971 8.5 9.16667 9.09695 9.16667 9.83333V11.1667C9.16667 11.903 8.56971 12.5 7.83333 12.5H4.5C3.76362 12.5 3.16667 11.903 3.16667 11.1667V9.83333C3.16667 9.09695 3.76362 8.5 4.5 8.5ZM4.5 1.83333H12.5C13.2364 1.83333 13.8333 2.43029 13.8333 3.16667V4.5C13.8333 5.23638 13.2364 5.83333 12.5 5.83333H4.5C3.76362 5.83333 3.16667 5.23638 3.16667 4.5V3.16667C3.16667 2.43029 3.76362 1.83333 4.5 1.83333Z" stroke="var(--stroke-0, #404040)" stroke-linecap="round" stroke-linejoin="round"/>
</svg>
