<svg preserveAspectRatio="none" width="100%" height="100%" overflow="visible" style="display: block;" viewBox="0 0 15.1319 13.7982" fill="none" xmlns="http://www.w3.org/2000/svg">
<path id="Vector" d="M2.23161 8.83089C1.7363 8.32483 1.36265 7.7127 1.13896 7.04085C0.915274 6.369 0.847411 5.65505 0.940513 4.95309C1.03362 4.25113 1.28524 3.57956 1.67634 2.98925C2.06743 2.39894 2.58773 1.90537 3.19783 1.54592C3.80793 1.18648 4.49182 0.970592 5.19772 0.914608C5.90361 0.858625 6.61299 0.964015 7.27212 1.2228C7.93125 1.48158 8.52284 1.88696 9.00209 2.40825C9.48135 2.92953 9.83569 3.55304 10.0383 4.23156H11.2316C11.8753 4.23148 12.5019 4.43844 13.0189 4.82185C13.536 5.20526 13.9159 5.7448 14.1028 6.36076C14.2896 6.97672 14.2734 7.63644 14.0565 8.24247C13.8396 8.8485 13.4335 9.3687 12.8983 9.72622M7.56504 6.89821V12.8982M7.56504 6.89821L10.2317 9.56488M7.56504 6.89821L4.89837 9.56488" stroke="var(--stroke-0, white)" stroke-width="1.8" stroke-linecap="round" stroke-linejoin="round"/>
</svg>
