<svg preserveAspectRatio="none" width="100%" height="100%" overflow="visible" style="display: block;" viewBox="0 0 14.8333 12.1667" fill="none" xmlns="http://www.w3.org/2000/svg">
<path id="Vector" d="M2.75 0.75H3.41667C3.9471 0.75 4.45581 0.960714 4.83088 1.33579C5.20595 1.71086 5.41667 2.21957 5.41667 2.75M5.41667 2.75C5.41667 2.21957 5.62738 1.71086 6.00245 1.33579C6.37753 0.960714 6.88623 0.75 7.41667 0.75H8.08333M5.41667 2.75V9.41667M8.08333 11.4167H7.41667C6.88623 11.4167 6.37753 11.206 6.00245 10.8309C5.62738 10.4558 5.41667 9.9471 5.41667 9.41667M5.41667 9.41667C5.41667 9.9471 5.20595 10.4558 4.83088 10.8309C4.45581 11.206 3.9471 11.4167 3.41667 11.4167H2.75M2.75 8.75H2.08333C1.72971 8.75 1.39057 8.60952 1.14052 8.35948C0.890476 8.10943 0.75 7.77029 0.75 7.41667V4.75C0.75 4.39638 0.890476 4.05724 1.14052 3.80719C1.39057 3.55714 1.72971 3.41667 2.08333 3.41667H2.75M8.08333 3.41667H12.75C13.1036 3.41667 13.4428 3.55714 13.6928 3.80719C13.9429 4.05724 14.0833 4.39638 14.0833 4.75V7.41667C14.0833 7.77029 13.9429 8.10943 13.6928 8.35948C13.4428 8.60952 13.1036 8.75 12.75 8.75H8.08333" stroke="var(--stroke-0, #7F56D9)" stroke-width="1.5" stroke-linecap="round" stroke-linejoin="round"/>
</svg>
