<svg preserveAspectRatio="none" width="100%" height="100%" overflow="visible" style="display: block;" viewBox="0 0 13 13" fill="none" xmlns="http://www.w3.org/2000/svg">
<path id="Vector" d="M12.5 8.49996L10.4427 6.44263C10.1926 6.19267 9.85355 6.05225 9.5 6.05225C9.14645 6.05225 8.80737 6.19267 8.55733 6.44263L2.5 12.5M1.83333 0.5H11.1667C11.903 0.5 12.5 1.09695 12.5 1.83333V11.1667C12.5 11.903 11.903 12.5 11.1667 12.5H1.83333C1.09695 12.5 0.5 11.903 0.5 11.1667V1.83333C0.5 1.09695 1.09695 0.5 1.83333 0.5ZM5.83333 4.5C5.83333 5.23638 5.23638 5.83333 4.5 5.83333C3.76362 5.83333 3.16667 5.23638 3.16667 4.5C3.16667 3.76362 3.76362 3.16667 4.5 3.16667C5.23638 3.16667 5.83333 3.76362 5.83333 4.5Z" stroke="var(--stroke-0, #7F56D9)" stroke-linecap="round" stroke-linejoin="round"/>
</svg>
