<svg preserveAspectRatio="none" width="100%" height="100%" overflow="visible" style="display: block;" viewBox="0 0 21.5167 21.4905" fill="none" xmlns="http://www.w3.org/2000/svg">
<path id="Vector" d="M20.7502 16.4001L11.5802 20.5601C11.3196 20.679 11.0366 20.7405 10.7502 20.7405C10.4638 20.7405 10.1807 20.679 9.92018 20.5601L0.750184 16.4001M20.7502 11.4001L11.5802 15.5601C11.3196 15.679 11.0366 15.7405 10.7502 15.7405C10.4638 15.7405 10.1807 15.679 9.92018 15.5601L0.750184 11.4001M11.5801 0.930357C11.3196 0.811506 11.0365 0.75 10.7501 0.75C10.4638 0.75 10.1807 0.811506 9.92015 0.930357L1.35015 4.83036C1.1727 4.9086 1.02183 5.03676 0.915911 5.19921C0.809994 5.36167 0.753602 5.55142 0.753602 5.74536C0.753602 5.93929 0.809994 6.12904 0.915911 6.2915C1.02183 6.45396 1.1727 6.58211 1.35015 6.66036L9.93015 10.5704C10.1907 10.6892 10.4738 10.7507 10.7601 10.7507C11.0465 10.7507 11.3296 10.6892 11.5901 10.5704L20.1701 6.67036C20.3476 6.59211 20.4985 6.46396 20.6044 6.3015C20.7103 6.13904 20.7667 5.94929 20.7667 5.75536C20.7667 5.56142 20.7103 5.37167 20.6044 5.20921C20.4985 5.04676 20.3476 4.9186 20.1701 4.84036L11.5801 0.930357Z" stroke="var(--stroke-0, #404040)" stroke-width="1.5" stroke-linecap="round" stroke-linejoin="round"/>
</svg>
