<svg preserveAspectRatio="none" width="100%" height="100%" overflow="visible" style="display: block;" viewBox="0 0 19.4993 19.4993" fill="none" xmlns="http://www.w3.org/2000/svg">
<path id="Vector" d="M6.74927 12.75L9.74927 9.75M14.7493 10.75C14.7493 9.1587 14.1171 7.63258 12.9919 6.50736C11.8667 5.38214 10.3406 4.75 8.74927 4.75M18.7493 10.75C18.7493 8.09784 17.6957 5.5543 15.8203 3.67893C13.945 1.80357 11.4014 0.75 8.74927 0.75M1.74927 7.75C0.933713 9.14507 0.603407 10.7711 0.809991 12.3738C1.01657 13.9765 1.7484 15.4655 2.89106 16.6082C4.03372 17.7509 5.5228 18.4827 7.12551 18.6893C8.72821 18.8959 10.3542 18.5656 11.7493 17.75L1.74927 7.75Z" stroke="var(--stroke-0, #0FA6FF)" stroke-width="1.5" stroke-linecap="round" stroke-linejoin="round"/>
</svg>
