<svg preserveAspectRatio="none" width="100%" height="100%" overflow="visible" style="display: block;" viewBox="0 0 13 13.0067" fill="none" xmlns="http://www.w3.org/2000/svg">
<path id="Vector" d="M12.5 9.16667H10.5C10.1464 9.16667 9.80724 9.30714 9.55719 9.55719C9.30714 9.80724 9.16667 10.1464 9.16667 10.5V12.5M12.5 12.5V12.5067M6.5 3.16667V5.16667C6.5 5.52029 6.35952 5.85943 6.10948 6.10948C5.85943 6.35952 5.52029 6.5 5.16667 6.5H3.16667M0.5 6.5H0.506667M6.5 0.5H6.50667M6.5 9.16667V9.17333M9.16667 6.5H9.83333M12.5 6.5V6.50667M6.5 12.5V11.8333M1.16667 0.5H3.16667C3.53486 0.5 3.83333 0.798477 3.83333 1.16667V3.16667C3.83333 3.53486 3.53486 3.83333 3.16667 3.83333H1.16667C0.798477 3.83333 0.5 3.53486 0.5 3.16667V1.16667C0.5 0.798477 0.798477 0.5 1.16667 0.5ZM9.83333 0.5H11.8333C12.2015 0.5 12.5 0.798477 12.5 1.16667V3.16667C12.5 3.53486 12.2015 3.83333 11.8333 3.83333H9.83333C9.46514 3.83333 9.16667 3.53486 9.16667 3.16667V1.16667C9.16667 0.798477 9.46514 0.5 9.83333 0.5ZM1.16667 9.16667H3.16667C3.53486 9.16667 3.83333 9.46514 3.83333 9.83333V11.8333C3.83333 12.2015 3.53486 12.5 3.16667 12.5H1.16667C0.798477 12.5 0.5 12.2015 0.5 11.8333V9.83333C0.5 9.46514 0.798477 9.16667 1.16667 9.16667Z" stroke="var(--stroke-0, #404040)" stroke-linecap="round" stroke-linejoin="round"/>
</svg>
