<svg preserveAspectRatio="none" width="100%" height="100%" overflow="visible" style="display: block;" viewBox="0 0 7.91667 14.5833" fill="none" xmlns="http://www.w3.org/2000/svg">
<g id="Vector">
<path d="M1.45833 8.125C1.91857 8.125 2.29167 7.7519 2.29167 7.29167C2.29167 6.83143 1.91857 6.45833 1.45833 6.45833C0.998096 6.45833 0.625 6.83143 0.625 7.29167C0.625 7.7519 0.998096 8.125 1.45833 8.125Z" stroke="var(--stroke-0, #404040)" stroke-width="1.25" stroke-linecap="round" stroke-linejoin="round"/>
<path d="M1.45833 2.29167C1.91857 2.29167 2.29167 1.91857 2.29167 1.45833C2.29167 0.998096 1.91857 0.625 1.45833 0.625C0.998096 0.625 0.625 0.998096 0.625 1.45833C0.625 1.91857 0.998096 2.29167 1.45833 2.29167Z" stroke="var(--stroke-0, #404040)" stroke-width="1.25" stroke-linecap="round" stroke-linejoin="round"/>
<path d="M1.45833 13.9583C1.91857 13.9583 2.29167 13.5852 2.29167 13.125C2.29167 12.6648 1.91857 12.2917 1.45833 12.2917C0.998096 12.2917 0.625 12.6648 0.625 13.125C0.625 13.5852 0.998096 13.9583 1.45833 13.9583Z" stroke="var(--stroke-0, #404040)" stroke-width="1.25" stroke-linecap="round" stroke-linejoin="round"/>
<path d="M6.45833 8.125C6.91857 8.125 7.29167 7.7519 7.29167 7.29167C7.29167 6.83143 6.91857 6.45833 6.45833 6.45833C5.9981 6.45833 5.625 6.83143 5.625 7.29167C5.625 7.7519 5.9981 8.125 6.45833 8.125Z" stroke="var(--stroke-0, #404040)" stroke-width="1.25" stroke-linecap="round" stroke-linejoin="round"/>
<path d="M6.45833 2.29167C6.91857 2.29167 7.29167 1.91857 7.29167 1.45833C7.29167 0.998096 6.91857 0.625 6.45833 0.625C5.9981 0.625 5.625 0.998096 5.625 1.45833C5.625 1.91857 5.9981 2.29167 6.45833 2.29167Z" stroke="var(--stroke-0, #404040)" stroke-width="1.25" stroke-linecap="round" stroke-linejoin="round"/>
<path d="M6.45833 13.9583C6.91857 13.9583 7.29167 13.5852 7.29167 13.125C7.29167 12.6648 6.91857 12.2917 6.45833 12.2917C5.9981 12.2917 5.625 12.6648 5.625 13.125C5.625 13.5852 5.9981 13.9583 6.45833 13.9583Z" stroke="var(--stroke-0, #404040)" stroke-width="1.25" stroke-linecap="round" stroke-linejoin="round"/>
</g>
</svg>
