<svg preserveAspectRatio="none" width="100%" height="100%" overflow="visible" style="display: block;" viewBox="0 0 14.3333 11.6667" fill="none" xmlns="http://www.w3.org/2000/svg">
<path id="Vector" d="M2.5 0.5H3.16667C3.6971 0.5 4.20581 0.710714 4.58088 1.08579C4.95595 1.46086 5.16667 1.96957 5.16667 2.5M5.16667 2.5C5.16667 1.96957 5.37738 1.46086 5.75245 1.08579C6.12753 0.710714 6.63623 0.5 7.16667 0.5H7.83333M5.16667 2.5V9.16667M7.83333 11.1667H7.16667C6.63623 11.1667 6.12753 10.956 5.75245 10.5809C5.37738 10.2058 5.16667 9.6971 5.16667 9.16667M5.16667 9.16667C5.16667 9.6971 4.95595 10.2058 4.58088 10.5809C4.20581 10.956 3.6971 11.1667 3.16667 11.1667H2.5M2.5 8.5H1.83333C1.47971 8.5 1.14057 8.35952 0.890524 8.10948C0.640476 7.85943 0.5 7.52029 0.5 7.16667V4.5C0.5 4.14638 0.640476 3.80724 0.890524 3.55719C1.14057 3.30714 1.47971 3.16667 1.83333 3.16667H2.5M7.83333 3.16667H12.5C12.8536 3.16667 13.1928 3.30714 13.4428 3.55719C13.6929 3.80724 13.8333 4.14638 13.8333 4.5V7.16667C13.8333 7.52029 13.6929 7.85943 13.4428 8.10948C13.1928 8.35952 12.8536 8.5 12.5 8.5H7.83333" stroke="var(--stroke-0, #404040)" stroke-linecap="round" stroke-linejoin="round"/>
</svg>
