<svg preserveAspectRatio="none" width="100%" height="100%" overflow="visible" style="display: block;" viewBox="0 0 21.4979 19.4973" fill="none" xmlns="http://www.w3.org/2000/svg">
<path id="Vector" d="M2.74741 12.6463C2.00445 11.8873 1.44398 10.969 1.10844 9.96127C0.772911 8.9535 0.671116 7.88258 0.81077 6.82964C0.950424 5.77669 1.32787 4.76934 1.9145 3.88387C2.50114 2.9984 3.28159 2.25805 4.19674 1.71889C5.11189 1.17972 6.13774 0.855888 7.19658 0.771913C8.25542 0.687937 9.31948 0.846022 10.3082 1.23419C11.2969 1.62237 12.1843 2.23045 12.9031 3.01237C13.622 3.7943 14.1535 4.72957 14.4574 5.74733H16.2474C17.2129 5.74722 18.1529 6.05766 18.9284 6.63277C19.7039 7.20789 20.2739 8.0172 20.5542 8.94114C20.8344 9.86508 20.8101 10.8547 20.4847 11.7637C20.1594 12.6728 19.5503 13.453 18.7474 13.9893M10.7476 9.74731V18.7473M10.7476 9.74731L14.7476 13.7473M10.7476 9.74731L6.74756 13.7473" stroke="var(--stroke-0, #0FA6FF)" stroke-width="1.5" stroke-linecap="round" stroke-linejoin="round"/>
</svg>
