<svg preserveAspectRatio="none" width="100%" height="100%" overflow="visible" style="display: block;" viewBox="0 0 20 20" fill="none" xmlns="http://www.w3.org/2000/svg">
<g id="Icon">
<path id="Vector" d="M9.16675 3.91868C9.16658 3.80261 9.13203 3.68919 9.06747 3.59273C9.0029 3.49627 8.91121 3.4211 8.80396 3.3767C8.69671 3.33231 8.57872 3.32068 8.46487 3.34327C8.35101 3.36587 8.24641 3.42169 8.16425 3.50368L5.34425 6.32285C5.23542 6.43233 5.10594 6.51912 4.96333 6.5782C4.82071 6.63728 4.66778 6.66747 4.51341 6.66702H2.50008C2.27907 6.66702 2.06711 6.75481 1.91083 6.91109C1.75455 7.06737 1.66675 7.27934 1.66675 7.50035V12.5003C1.66675 12.7214 1.75455 12.9333 1.91083 13.0896C2.06711 13.2459 2.27907 13.3337 2.50008 13.3337H4.51341C4.66778 13.3332 4.82071 13.3634 4.96333 13.4225C5.10594 13.4816 5.23542 13.5684 5.34425 13.6778L8.16341 16.4978C8.24558 16.5802 8.35034 16.6363 8.46441 16.659C8.57848 16.6817 8.69673 16.6701 8.80419 16.6256C8.91164 16.581 9.00345 16.5056 9.068 16.4088C9.13254 16.3121 9.16691 16.1983 9.16675 16.082V3.91868Z" stroke="var(--stroke-0, #737373)" stroke-width="1.66667" stroke-linecap="round" stroke-linejoin="round"/>
<path id="Vector_2" d="M13.3333 7.5C13.8743 8.22123 14.1667 9.09846 14.1667 10C14.1667 10.9015 13.8743 11.7788 13.3333 12.5" stroke="var(--stroke-0, #737373)" stroke-width="1.66667" stroke-linecap="round" stroke-linejoin="round"/>
<path id="Vector_3" d="M16.1367 15.302C16.8332 14.6055 17.3856 13.7787 17.7625 12.8688C18.1395 11.9588 18.3335 10.9836 18.3335 9.99865C18.3335 9.01372 18.1395 8.03845 17.7625 7.1285C17.3856 6.21855 16.8332 5.39175 16.1367 4.69531" stroke="var(--stroke-0, #737373)" stroke-width="1.66667" stroke-linecap="round" stroke-linejoin="round"/>
</g>
</svg>
