<svg preserveAspectRatio="none" width="100%" height="100%" overflow="visible" style="display: block;" viewBox="0 0 6.95625 3.66563" fill="none" xmlns="http://www.w3.org/2000/svg">
<path id="Vector" d="M6.47813 3.58125L3.47813 0.65625L0.478125 3.58125C0.421875 3.6375 0.35625 3.66563 0.28125 3.66563C0.20625 3.66563 0.140625 3.6375 0.084375 3.58125C0.028125 3.525 0 3.45938 0 3.38438C0 3.30938 0.025 3.24688 0.075 3.19688L3.27188 0.084375C3.32813 0.028125 3.39688 0 3.47813 0C3.55938 0 3.62813 0.028125 3.68438 0.084375L6.88125 3.1875C6.93125 3.24375 6.95625 3.31094 6.95625 3.38906C6.95625 3.46719 6.92813 3.53281 6.87188 3.58594C6.81563 3.63906 6.75 3.66563 6.675 3.66563C6.6 3.66563 6.53438 3.6375 6.47813 3.58125Z" fill="var(--fill-0, white)"/>
</svg>
