<svg preserveAspectRatio="none" width="100%" height="100%" overflow="visible" style="display: block;" viewBox="0 0 14.3306 12.9976" fill="none" xmlns="http://www.w3.org/2000/svg">
<path id="Vector" d="M8.31863 1.1643C8.20143 0.962252 8.0332 0.794537 7.83078 0.677951C7.62837 0.561365 7.39889 0.5 7.1653 0.5C6.93171 0.5 6.70223 0.561365 6.49982 0.677951C6.2974 0.794537 6.12917 0.962252 6.01197 1.1643L0.678633 10.4976C0.561667 10.7002 0.50006 10.93 0.5 11.164C0.49994 11.3979 0.561428 11.6277 0.678291 11.8304C0.795154 12.033 0.963277 12.2014 1.16578 12.3185C1.36828 12.4356 1.59803 12.4974 1.83197 12.4976H12.4986C12.7326 12.4974 12.9623 12.4356 13.1648 12.3185C13.3673 12.2014 13.5354 12.033 13.6523 11.8304C13.7692 11.6277 13.8307 11.3979 13.8306 11.164C13.8305 10.93 13.7689 10.7002 13.652 10.4976L8.31863 1.1643Z" stroke="var(--stroke-0, #404040)" stroke-linecap="round" stroke-linejoin="round"/>
</svg>
