<svg preserveAspectRatio="none" width="100%" height="100%" overflow="visible" style="display: block;" viewBox="0 0 14.3333 14.3333" fill="none" xmlns="http://www.w3.org/2000/svg">
<path id="Vector" d="M13.8333 13.8333H0.5M3.16667 0.5H4.5C5.23638 0.5 5.83333 1.09695 5.83333 1.83333V9.83333C5.83333 10.5697 5.23638 11.1667 4.5 11.1667H3.16667C2.43029 11.1667 1.83333 10.5697 1.83333 9.83333V1.83333C1.83333 1.09695 2.43029 0.5 3.16667 0.5ZM9.83333 5.16667H11.1667C11.903 5.16667 12.5 5.76362 12.5 6.5V9.83333C12.5 10.5697 11.903 11.1667 11.1667 11.1667H9.83333C9.09695 11.1667 8.5 10.5697 8.5 9.83333V6.5C8.5 5.76362 9.09695 5.16667 9.83333 5.16667Z" stroke="var(--stroke-0, #404040)" stroke-linecap="round" stroke-linejoin="round"/>
</svg>
