<svg preserveAspectRatio="none" width="100%" height="100%" overflow="visible" style="display: block;" viewBox="0 0 14.3333 14.3333" fill="none" xmlns="http://www.w3.org/2000/svg">
<path id="Vector" d="M13.8333 0.5H0.5M3.16667 3.16667H4.5C5.23638 3.16667 5.83333 3.76362 5.83333 4.5V12.5C5.83333 13.2364 5.23638 13.8333 4.5 13.8333H3.16667C2.43029 13.8333 1.83333 13.2364 1.83333 12.5V4.5C1.83333 3.76362 2.43029 3.16667 3.16667 3.16667ZM9.83333 3.16667H11.1667C11.903 3.16667 12.5 3.76362 12.5 4.5V7.83333C12.5 8.56971 11.903 9.16667 11.1667 9.16667H9.83333C9.09695 9.16667 8.5 8.56971 8.5 7.83333V4.5C8.5 3.76362 9.09695 3.16667 9.83333 3.16667Z" stroke="var(--stroke-0, #404040)" stroke-linecap="round" stroke-linejoin="round"/>
</svg>
