<svg preserveAspectRatio="none" width="100%" height="100%" overflow="visible" style="display: block;" viewBox="0 0 45 36.6667" fill="none" xmlns="http://www.w3.org/2000/svg">
<g id="Container">
<path d="M10 0.208008H26.667C32.0746 0.208186 36.458 4.59232 36.458 10C36.458 15.4077 32.0746 19.7918 26.667 19.792H10C4.59221 19.792 0.208008 15.4078 0.208008 10C0.208008 4.59221 4.59221 0.208009 10 0.208008Z" fill="var(--fill-0, #0FA6FF)"/>
<path d="M10 0.208008H26.667C32.0746 0.208186 36.458 4.59232 36.458 10C36.458 15.4077 32.0746 19.7918 26.667 19.792H10C4.59221 19.792 0.208008 15.4078 0.208008 10C0.208008 4.59221 4.59221 0.208009 10 0.208008Z" stroke="var(--stroke-0, #D4D4D4)" stroke-width="0.416667"/>
<g id="thumb" filter="url(#filter0_dd_4748_44212)">
<circle cx="26.6667" cy="10" r="8.33333" fill="var(--fill-0, white)"/>
</g>
</g>
<defs>
<filter id="filter0_dd_4748_44212" x="8.33333" y="0" width="36.6667" height="36.6667" filterUnits="userSpaceOnUse" color-interpolation-filters="sRGB">
<feFlood flood-opacity="0" result="BackgroundImageFix"/>
<feColorMatrix in="SourceAlpha" type="matrix" values="0 0 0 0 0 0 0 0 0 0 0 0 0 0 0 0 0 0 127 0" result="hardAlpha"/>
<feMorphology radius="3.33333" operator="erode" in="SourceAlpha" result="effect1_dropShadow_4748_44212"/>
<feOffset dy="3.33333"/>
<feGaussianBlur stdDeviation="2.5"/>
<feComposite in2="hardAlpha" operator="out"/>
<feColorMatrix type="matrix" values="0 0 0 0 0 0 0 0 0 0 0 0 0 0 0 0 0 0 0.1 0"/>
<feBlend mode="normal" in2="BackgroundImageFix" result="effect1_dropShadow_4748_44212"/>
<feColorMatrix in="SourceAlpha" type="matrix" values="0 0 0 0 0 0 0 0 0 0 0 0 0 0 0 0 0 0 127 0" result="hardAlpha"/>
<feMorphology radius="2.5" operator="erode" in="SourceAlpha" result="effect2_dropShadow_4748_44212"/>
<feOffset dy="8.33333"/>
<feGaussianBlur stdDeviation="6.25"/>
<feComposite in2="hardAlpha" operator="out"/>
<feColorMatrix type="matrix" values="0 0 0 0 0 0 0 0 0 0 0 0 0 0 0 0 0 0 0.1 0"/>
<feBlend mode="normal" in2="effect1_dropShadow_4748_44212" result="effect2_dropShadow_4748_44212"/>
<feBlend mode="normal" in="SourceGraphic" in2="effect2_dropShadow_4748_44212" result="shape"/>
</filter>
</defs>
</svg>
