<svg preserveAspectRatio="none" width="100%" height="100%" overflow="visible" style="display: block;" viewBox="0 0 13.5325 13.5325" fill="none" xmlns="http://www.w3.org/2000/svg">
<path id="Vector" d="M11.4387 2.79688L13.3918 0.84375C13.4856 0.739583 13.5325 0.622396 13.5325 0.492188C13.5325 0.361979 13.483 0.247396 13.384 0.148438C13.2851 0.0494792 13.1705 0 13.0403 0C12.9101 0 12.7929 0.046875 12.6887 0.140625L10.7356 2.09375C9.35016 0.958333 7.8137 0.440104 6.1262 0.539062C4.4387 0.638021 2.97516 1.32812 1.73558 2.60938C0.548077 3.95312 -0.0300481 5.46875 0.00120192 7.15625C0.0324519 8.84375 0.667868 10.3333 1.90745 11.625C3.19912 12.8646 4.6887 13.5 6.3762 13.5312C8.0637 13.5625 9.57933 12.9844 10.9231 11.7969C12.2043 10.5573 12.8944 9.09375 12.9934 7.40625C13.0923 5.71875 12.5741 4.18229 11.4387 2.79688ZM6.5012 1.53125C8.0637 1.57292 9.36058 2.10938 10.3918 3.14062C11.4231 4.17188 11.9595 5.46875 12.0012 7.03125C11.9595 8.59375 11.4231 9.89062 10.3918 10.9219C9.36058 11.9531 8.0637 12.4896 6.5012 12.5312C4.9387 12.4896 3.64183 11.9531 2.61058 10.9219C1.57933 9.89062 1.04287 8.59375 1.0012 7.03125C1.04287 5.46875 1.57933 4.17188 2.61058 3.14062C3.64183 2.10938 4.9387 1.57292 6.5012 1.53125ZM6.0012 7.53125V9.03125C6.0012 9.17708 6.04808 9.29688 6.14183 9.39062C6.23558 9.48438 6.35537 9.53125 6.5012 9.53125C6.64704 9.53125 6.76683 9.48438 6.86058 9.39062C6.95433 9.29688 7.0012 9.17708 7.0012 9.03125V7.53125H8.5012C8.64703 7.53125 8.76683 7.48438 8.86058 7.39062C8.95433 7.29688 9.0012 7.17708 9.0012 7.03125C9.0012 6.88542 8.95433 6.76562 8.86058 6.67188C8.76683 6.57812 8.64703 6.53125 8.5012 6.53125H7.0012V5.03125C7.0012 4.88542 6.95433 4.76562 6.86058 4.67188C6.76683 4.57812 6.64704 4.53125 6.5012 4.53125C6.35537 4.53125 6.23558 4.57812 6.14183 4.67188C6.04808 4.76562 6.0012 4.88542 6.0012 5.03125V6.53125H4.5012C4.35537 6.53125 4.23558 6.57812 4.14183 6.67188C4.04808 6.76562 4.0012 6.88542 4.0012 7.03125C4.0012 7.17708 4.04808 7.29688 4.14183 7.39062C4.23558 7.48438 4.35537 7.53125 4.5012 7.53125H6.0012Z" fill="var(--fill-0, #3B82F6)"/>
</svg>
