<svg preserveAspectRatio="none" width="100%" height="100%" overflow="visible" style="display: block;" viewBox="0 0 14.3333 14.3333" fill="none" xmlns="http://www.w3.org/2000/svg">
<path id="Vector" d="M5.22656 5.16672C5.3833 4.72117 5.69266 4.34546 6.09987 4.10614C6.50707 3.86683 6.98583 3.77935 7.45135 3.8592C7.91687 3.93904 8.33911 4.18107 8.64328 4.54241C8.94745 4.90374 9.11393 5.36107 9.11323 5.83339C9.11323 7.16672 7.11323 7.83339 7.11323 7.83339M7.16667 10.5H7.17333M13.8333 7.16667C13.8333 10.8486 10.8486 13.8333 7.16667 13.8333C3.48477 13.8333 0.5 10.8486 0.5 7.16667C0.5 3.48477 3.48477 0.5 7.16667 0.5C10.8486 0.5 13.8333 3.48477 13.8333 7.16667Z" stroke="var(--stroke-0, #737373)" stroke-linecap="round" stroke-linejoin="round"/>
</svg>
