<svg preserveAspectRatio="none" width="100%" height="100%" overflow="visible" style="display: block;" viewBox="0 0 17.9167 11.25" fill="none" xmlns="http://www.w3.org/2000/svg">
<path id="Vector" d="M12.2917 6.45835L16.6442 9.36002C16.7069 9.40177 16.7798 9.42572 16.8551 9.42933C16.9304 9.43293 17.0052 9.41604 17.0717 9.38047C17.1381 9.34489 17.1937 9.29196 17.2324 9.22732C17.2711 9.16267 17.2916 9.08872 17.2917 9.01335V2.18335C17.2917 2.11004 17.2724 2.03801 17.2356 1.97456C17.1989 1.9111 17.1461 1.85845 17.0826 1.82193C17.019 1.78541 16.9469 1.76631 16.8736 1.76656C16.8003 1.76681 16.7283 1.7864 16.665 1.82335L12.2917 4.37502M2.29167 0.625H10.625C11.5455 0.625 12.2917 1.37119 12.2917 2.29167V8.95833C12.2917 9.87881 11.5455 10.625 10.625 10.625H2.29167C1.37119 10.625 0.625 9.87881 0.625 8.95833V2.29167C0.625 1.37119 1.37119 0.625 2.29167 0.625Z" stroke="var(--stroke-0, #737373)" stroke-width="1.25" stroke-linecap="round" stroke-linejoin="round"/>
</svg>
