<svg preserveAspectRatio="none" width="100%" height="100%" overflow="visible" style="display: block;" viewBox="0 0 14.3333 14.3333" fill="none" xmlns="http://www.w3.org/2000/svg">
<path id="Vector" d="M0.5 0.5V13.8333M4.5 2.5H5.83333C6.56971 2.5 7.16667 3.09695 7.16667 3.83333V10.5C7.16667 11.2364 6.56971 11.8333 5.83333 11.8333H4.5C3.76362 11.8333 3.16667 11.2364 3.16667 10.5V3.83333C3.16667 3.09695 3.76362 2.5 4.5 2.5ZM11.1667 3.83333H12.5C13.2364 3.83333 13.8333 4.43029 13.8333 5.16667V9.16667C13.8333 9.90305 13.2364 10.5 12.5 10.5H11.1667C10.4303 10.5 9.83333 9.90305 9.83333 9.16667V5.16667C9.83333 4.43029 10.4303 3.83333 11.1667 3.83333Z" stroke="var(--stroke-0, #404040)" stroke-linecap="round" stroke-linejoin="round"/>
</svg>
