<svg preserveAspectRatio="none" width="100%" height="100%" overflow="visible" style="display: block;" viewBox="0 0 17.5 17.5" fill="none" xmlns="http://www.w3.org/2000/svg">
<path id="Vector" d="M5.75 10.75L0.75 5.75M0.75 5.75L5.75 0.75M0.75 5.75H11.25C11.9723 5.75 12.6875 5.89226 13.3548 6.16866C14.022 6.44506 14.6284 6.85019 15.1391 7.36091C15.6498 7.87163 16.0549 8.47795 16.3313 9.14524C16.6077 9.81253 16.75 10.5277 16.75 11.25C16.75 11.9723 16.6077 12.6875 16.3313 13.3548C16.0549 14.022 15.6498 14.6284 15.1391 15.1391C14.6284 15.6498 14.022 16.0549 13.3548 16.3313C12.6875 16.6077 11.9723 16.75 11.25 16.75H7.75" stroke="var(--stroke-0, #404040)" stroke-width="1.5" stroke-linecap="round" stroke-linejoin="round"/>
</svg>
