<svg preserveAspectRatio="none" width="100%" height="100%" overflow="visible" style="display: block;" viewBox="0 0 16.25 17.9167" fill="none" xmlns="http://www.w3.org/2000/svg">
<path id="Vector" d="M4.79167 1.45833H2.29167C1.84964 1.45833 1.42572 1.63393 1.11316 1.94649C0.800595 2.25905 0.625 2.68297 0.625 3.125V14.7917C0.625 15.7083 1.375 16.4583 2.29167 16.4583H4.79167M11.4583 1.45833H13.9583C14.4004 1.45833 14.8243 1.63393 15.1368 1.94649C15.4494 2.25905 15.625 2.68297 15.625 3.125V14.7917C15.625 15.2337 15.4494 15.6576 15.1368 15.9702C14.8243 16.2827 14.4004 16.4583 13.9583 16.4583H11.4583M8.125 15.625V17.2917M8.125 10.625V12.2917M8.125 5.625V7.29167M8.125 0.625V2.29167" stroke="var(--stroke-0, #737373)" stroke-width="1.25" stroke-linecap="round" stroke-linejoin="round"/>
</svg>
