<svg preserveAspectRatio="none" width="100%" height="100%" overflow="visible" style="display: block;" viewBox="0 0 14.3333 14.3333" fill="none" xmlns="http://www.w3.org/2000/svg">
<path id="Vector" d="M0.5 13.8333H13.8333M3.83333 7.16667H10.5C11.2364 7.16667 11.8333 7.76362 11.8333 8.5V9.83333C11.8333 10.5697 11.2364 11.1667 10.5 11.1667H3.83333C3.09695 11.1667 2.5 10.5697 2.5 9.83333V8.5C2.5 7.76362 3.09695 7.16667 3.83333 7.16667ZM5.16667 0.5H9.16667C9.90305 0.5 10.5 1.09695 10.5 1.83333V3.16667C10.5 3.90305 9.90305 4.5 9.16667 4.5H5.16667C4.43029 4.5 3.83333 3.90305 3.83333 3.16667V1.83333C3.83333 1.09695 4.43029 0.5 5.16667 0.5Z" stroke="var(--stroke-0, #404040)" stroke-linecap="round" stroke-linejoin="round"/>
</svg>
